<?xml version="1.0" encoding="iso-8859-1"?>
<!-- Generator: Adobe Illustrator 19.0.0, SVG Export Plug-In . SVG Version: 6.00 Build 0)  -->
<svg version="1.1" id="Capa_1" xmlns="http://www.w3.org/2000/svg" xmlns:xlink="http://www.w3.org/1999/xlink" x="0px" y="0px"
	 viewBox="0 0 512 512" style="enable-background:new 0 0 512 512;" xml:space="preserve">
<g>
	<g>
		<path d="M293.211,0C278.723,0,265.977,5.894,256,17.125C246.023,5.894,233.277,0,218.789,0c-29.277,0-52.211,24.332-52.211,55.394
			c0,32.606,25.351,54.003,60.438,83.617c6.121,5.167,12.451,10.51,19.16,16.324c2.819,2.443,6.321,3.665,9.824,3.665
			s7.005-1.222,9.824-3.665c6.71-5.816,13.041-11.159,19.163-16.326c32.535-27.46,60.436-49.812,60.436-83.615
			C345.423,24.332,322.489,0,293.211,0z M265.636,116.083c-3.147,2.657-6.349,5.359-9.637,8.155
			c-3.287-2.795-6.488-5.497-9.635-8.152c-33.624-28.38-49.787-42.816-49.787-60.692c0-12.619,7.629-25.394,22.211-25.394
			c16.107,0,22.335,19.851,22.767,21.296c1.744,6.573,7.641,11.152,14.445,11.152s12.701-4.579,14.445-11.152
			C270.876,49.851,277.104,30,293.211,30c14.582,0,22.211,12.775,22.211,25.394C315.422,74.022,296.509,90.028,265.636,116.083z"/>
	</g>
</g>
<g>
	<g>
		<path d="M497,422c-8.284,0-15,6.716-15,15v15h-30v-15c0-8.284-6.716-15-15-15s-15,6.716-15,15v15h-31v-63.586
			c17.73,6.276,37.924,0.987,50.132-14.304c15.575-19.451,12.352-47.77-6.979-63.208L284.102,189.861
			c-16.547-13.229-39.659-13.229-56.255,0.041L77.904,310.856c-19.436,15.522-22.59,43.827-7.041,63.248
			c12.603,15.758,33.09,20.39,50.137,14.347c0,23.661,0,39.624,0,63.549H90v-15c0-8.284-6.716-15-15-15s-15,6.716-15,15v15H30v-15
			c0-8.284-6.716-15-15-15s-15,6.716-15,15v60c0,8.284,6.716,15,15,15s15-6.716,15-15v-15h30v15c0,8.284,6.716,15,15,15
			s15-6.716,15-15v-15h31v15c0,8.284,6.716,15,15,15c6.926,0,233.074,0,240,0c8.284,0,15-6.716,15-15v-15h31v15
			c0,8.284,6.716,15,15,15s15-6.716,15-15v-15h30v15c0,8.284,6.716,15,15,15s15-6.716,15-15v-60C512,428.716,505.284,422,497,422z
			 M271,482h-30v-60h30V482z M361,482h-60v-75c0-8.284-6.716-15-15-15h-60c-8.284,0-15,6.716-15,15v75h-60
			c0-26.46,0-95.639,0-114.378l105-83.99l105,83.991V482z M265.369,252.71c-5.478-4.382-13.262-4.382-18.739,0L115.354,357.719
			c-6.47,5.185-15.89,4.114-21.068-2.359c-5.065-6.325-4.293-15.764,2.396-21.108l149.949-120.958
			c5.511-4.406,13.215-4.414,18.686-0.042l150.057,121.046c6.458,5.158,7.536,14.572,2.326,21.079
			c-5.155,6.456-14.587,7.522-21.066,2.333L265.369,252.71z"/>
	</g>
</g>
<g>
</g>
<g>
</g>
<g>
</g>
<g>
</g>
<g>
</g>
<g>
</g>
<g>
</g>
<g>
</g>
<g>
</g>
<g>
</g>
<g>
</g>
<g>
</g>
<g>
</g>
<g>
</g>
<g>
</g>
</svg>
